<svg width="31" height="31" viewBox="0 0 31 31" fill="none" xmlns="http://www.w3.org/2000/svg"><path d="M27.8251 26.0653C28.4496 24.3615 29.2701 21.1502 29.2701 16.0373C29.2701 14.4988 29.0028 10.7402 29.0028 10.7402C29.0028 10.7402 24.1912 9.65796 15.37 9.65796C6.54884 9.65796 1.46999 10.7402 1.46999 10.7402L1.46997 16.0373C1.46997 21.251 2.32313 24.4577 2.95169 26.1127C3.31547 27.0706 4.06578 27.791 5.0489 28.0796C6.64554 28.5483 9.76856 29.1388 15.37 29.1388C20.8221 29.1388 23.9261 28.6051 25.5601 28.1642C26.6278 27.8762 27.4445 27.1036 27.8251 26.0653Z" fill="#4AB9FD" fill-opacity="0.1"></path><path d="M29.2701 16.4467C29.2701 19.6188 29.1018 22.1179 28.8988 23.9787C28.6126 26.6016 26.6296 28.5367 24.0029 28.7854C21.9776 28.9771 19.1494 29.1388 15.37 29.1388C11.5906 29.1388 8.76247 28.9771 6.7372 28.7854C4.11045 28.5367 2.12743 26.6016 1.84125 23.9787C1.63823 22.1179 1.46997 19.6188 1.46997 16.4467C1.46997 14.2662 1.54948 12.3598 1.66513 10.7402C1.71832 9.99531 1.77916 9.31108 1.84342 8.68873C2.13403 5.87446 4.27775 3.76311 7.09526 3.50569C9.13588 3.31925 11.8813 3.16431 15.37 3.16431C18.8588 3.16431 21.6042 3.31925 23.6448 3.50569C26.4623 3.76311 28.606 5.87446 28.8966 8.68873C28.9609 9.31108 29.0217 9.99531 29.0749 10.7402C29.1906 12.3598 29.2701 14.2662 29.2701 16.4467Z" fill="#4AB9FD" fill-opacity="0.1"></path><path d="M29.0749 10.7402C29.0217 9.99531 28.9609 9.31108 28.8966 8.68873C28.606 5.87446 26.4623 3.76311 23.6448 3.50569C21.6042 3.31925 18.8588 3.16431 15.37 3.16431C11.8813 3.16431 9.13588 3.31925 7.09526 3.50569C4.27775 3.76311 2.13403 5.87446 1.84342 8.68873C1.77916 9.31108 1.71832 9.99531 1.66513 10.7402M29.0749 10.7402C29.1906 12.3598 29.2701 14.2662 29.2701 16.4467C29.2701 19.6188 29.1018 22.1179 28.8988 23.9787C28.6126 26.6016 26.6296 28.5367 24.0029 28.7854C21.9776 28.9771 19.1494 29.1388 15.37 29.1388C11.5906 29.1388 8.76247 28.9771 6.7372 28.7854C4.11045 28.5367 2.12743 26.6016 1.84125 23.9787C1.63823 22.1179 1.46997 19.6188 1.46997 16.4467C1.46997 14.2662 1.54948 12.3598 1.66513 10.7402M29.0749 10.7402C29.0749 10.7402 23.9298 9.65793 15.37 9.65793C6.81023 9.65793 1.66513 10.7402 1.66513 10.7402" stroke="#4AB9FD" stroke-width="2" stroke-linecap="round" stroke-linejoin="round"></path><path d="M7.92687 1C7.92687 1 7.88574 1.85679 7.88574 5.87022M22.8139 1C22.8139 1 22.855 1.85679 22.855 5.87022" stroke="#4AB9FD" stroke-width="2" stroke-linecap="round" stroke-linejoin="round"></path><path d="M20.7158 18.8574L10.0235 18.8574M20.7158 18.8574L16.3691 23.1865M20.7158 18.8574L16.3691 14.5283" stroke="#4AB9FD" stroke-width="2" stroke-linecap="round" stroke-linejoin="round"></path></svg>