<svg width="32" height="32" viewBox="0 0 32 32" fill="none" xmlns="http://www.w3.org/2000/svg"><path d="M55.8506 6.41069C55.9773 6.28499 56.1039 6.12061 56.1039 5.94657C56.1039 5.65649 55.7922 5.54046 55.5584 5.50178L50.6688 4.79593L48.4773 0.396438C48.3896 0.212723 48.224 0 48 0C47.776 0 47.6104 0.212723 47.5227 0.396438L45.3312 4.79593L40.4416 5.50178C40.1981 5.54046 39.8961 5.65649 39.8961 5.94657C39.8961 6.12061 40.0227 6.28499 40.1396 6.41069L43.6851 9.83359L42.8474 14.6682C42.8463 14.6758 42.8452 14.6833 42.8441 14.6907C42.8356 14.7491 42.8279 14.8015 42.8279 14.8616C42.8279 15.113 42.9545 15.345 43.237 15.345C43.3734 15.345 43.5 15.2967 43.6266 15.229L48 12.9471L52.3734 15.229C52.4903 15.2967 52.6266 15.345 52.763 15.345C53.0455 15.345 53.1623 15.113 53.1623 14.8616C53.1623 14.7939 53.1623 14.7359 53.1526 14.6682L52.3149 9.83359L55.8506 6.41069Z" fill="#FFC800"></path></svg>